<?xml version="1.0" encoding="UTF-8"?>
<svg id="logo" xmlns="http://www.w3.org/2000/svg" xmlns:xlink="http://www.w3.org/1999/xlink" viewBox="0 0 407 463.64">
  <defs>
    <style>
      .cls-1 {
        fill: #a03381;
      }

      .cls-1, .cls-2, .cls-3, .cls-4, .cls-5, .cls-6, .cls-7, .cls-8, .cls-9, .cls-10, .cls-11, .cls-12, .cls-13 {
        stroke-width: 0px;
      }

      .cls-2 {
        fill: #652d90;
      }

      .cls-3 {
        fill: #60287c;
      }

      .cls-4 {
        fill: url(#Dégradé_sans_nom_3);
      }

      .cls-14 {
        isolation: isolate;
      }

      .cls-5 {
        fill: url(#Dégradé_sans_nom_4);
      }

      .cls-6 {
        fill: #8f3185;
      }

      .cls-7 {
        fill: url(#Dégradé_sans_nom_2);
      }

      .cls-8 {
        fill: url(#Dégradé_sans_nom_71);
      }

      .cls-9 {
        fill: #742e86;
      }

      .cls-10 {
        fill: #a8347f;
      }

      .cls-11 {
        fill: url(#Dégradé_sans_nom);
      }

      .cls-12 {
        fill: #262261;
      }

      .cls-13 {
        fill: #4c2165;
      }

      .cls-15 {
        fill: none;
        stroke: #262261;
        stroke-miterlimit: 10;
        stroke-width: 8px;
      }
    </style>
    <linearGradient id="Dégradé_sans_nom_4" data-name="Dégradé sans nom 4" x1="50.84" y1="63.01" x2="407" y2="63.01" gradientTransform="translate(0 463.89) scale(1 -1)" gradientUnits="userSpaceOnUse">
      <stop offset="0" stop-color="#4b2063"/>
      <stop offset=".45" stop-color="#4d2063"/>
      <stop offset=".62" stop-color="#542265"/>
      <stop offset=".73" stop-color="#5f2468"/>
      <stop offset=".83" stop-color="#70276c"/>
      <stop offset=".91" stop-color="#862c71"/>
      <stop offset=".98" stop-color="#a13177"/>
      <stop offset="1" stop-color="#aa3379"/>
    </linearGradient>
    <linearGradient id="Dégradé_sans_nom_3" data-name="Dégradé sans nom 3" x1="2.2" y1="95.17" x2="365.22" y2="95.17" gradientTransform="translate(0 463.89) scale(1 -1)" gradientUnits="userSpaceOnUse">
      <stop offset="0" stop-color="#aa3379"/>
      <stop offset=".02" stop-color="#a13177"/>
      <stop offset=".09" stop-color="#862c71"/>
      <stop offset=".17" stop-color="#70276c"/>
      <stop offset=".27" stop-color="#5f2468"/>
      <stop offset=".38" stop-color="#542265"/>
      <stop offset=".55" stop-color="#4d2063"/>
      <stop offset="1" stop-color="#4b2063"/>
    </linearGradient>
    <linearGradient id="Dégradé_sans_nom" data-name="Dégradé sans nom" x1="41.58" y1="369.38" x2="404.67" y2="369.38" gradientTransform="translate(0 463.89) scale(1 -1)" gradientUnits="userSpaceOnUse">
      <stop offset="0" stop-color="#aa3379"/>
      <stop offset=".45" stop-color="#a83379"/>
      <stop offset=".62" stop-color="#a13177"/>
      <stop offset=".73" stop-color="#962f74"/>
      <stop offset=".83" stop-color="#852c70"/>
      <stop offset=".91" stop-color="#6f276b"/>
      <stop offset=".98" stop-color="#542265"/>
      <stop offset="1" stop-color="#4b2063"/>
    </linearGradient>
    <linearGradient id="Dégradé_sans_nom_2" data-name="Dégradé sans nom 2" x1="0" y1="402.01" x2="356.72" y2="402.01" gradientTransform="translate(0 463.89) scale(1 -1)" gradientUnits="userSpaceOnUse">
      <stop offset="0" stop-color="#4b2063"/>
      <stop offset=".02" stop-color="#542265"/>
      <stop offset=".09" stop-color="#6f276b"/>
      <stop offset=".17" stop-color="#852c70"/>
      <stop offset=".27" stop-color="#962f74"/>
      <stop offset=".38" stop-color="#a13177"/>
      <stop offset=".55" stop-color="#a83379"/>
      <stop offset="1" stop-color="#aa3379"/>
    </linearGradient>
    <linearGradient id="Dégradé_sans_nom_71" data-name="Dégradé sans nom 71" x1="180.92" y1="163.79" x2="175.22" y2="245.21" gradientUnits="userSpaceOnUse">
      <stop offset="0" stop-color="#4b2063"/>
      <stop offset=".22" stop-color="#5f2468"/>
      <stop offset=".31" stop-color="#5f2468"/>
      <stop offset=".41" stop-color="#612468"/>
      <stop offset=".53" stop-color="#70276c"/>
      <stop offset=".74" stop-color="#862c71"/>
      <stop offset=".9" stop-color="#a13177"/>
      <stop offset="1" stop-color="#aa3379"/>
    </linearGradient>
  </defs>
  <g id="curves-group">
    <path id="curve-4" class="cls-5" d="m398.55,365.54c3.86-9,7.55-17.69,8.45-27.41l-47.42.44c-7.36,29.09-26.61,46.25-41.68,59.67-61.72,55-143,47.51-153.23,46.42-67.79-7.26-113.5-45.89-113.83-45.15s59.43,54,146.09,62.88c83.09,8.49,145-28.45,169.33-51.07,20.74-19.27,31.74-44.38,32.29-45.78Z"/>
    <path id="curve-3" class="cls-4" d="m365.22,316.68c.54.75-46.63,65.4-129.44,92.43-79.41,25.92-147.72,2.94-176.31-14-24.35-14.44-40.4-36.65-41.27-37.89-7.47-10.52-14.54-20.51-16-34.31l20.82-.2,27.22-.25h.28c13.36,27,35.85,39.67,53.46,49.61,72,40.62,149.81,16.11,159.59,12.87,64.68-21.47,101.17-68.94,101.65-68.26Z"/>
    <path id="curve-2" class="cls-11" d="m404.67,142.77h-48.32c-13.11-27.09-35.48-40-53-50.11-71.59-41.28-149.65-17.5-159.46-14.35-64.89,20.87-101.83,67.97-102.31,67.31s47.24-65,130.3-91.22c79.64-25.18,147.74-1.56,176.17,15.65,24.21,14.66,40.05,37,40.91,38.27,7.37,10.59,14.35,20.68,15.71,34.45Z"/>
    <path id="curve-1" class="cls-7" d="m0,123.77h47.42c7.63-29,27-46,42.24-59.27C151.89,10.12,233.08,18.32,243.32,19.5c67.68,7.9,113.07,46.95,113.4,46.22S297.79,11.14,211.22,1.48C128.21-7.79,66,28.58,41.42,51c-20.91,19.05-32.11,44.05-32.72,45.45-3.93,8.99-7.7,17.62-8.7,27.32Z"/>
  </g>
  <g id="name" class="cls-14">
    <g id="web-developer" class="cls-14">
      <path id="letter-23" class="cls-12" d="m283.54,348.54c-.79,1.61-2.9,3.19-4.18,3.19-1.34,0-2.23-.7-2.04-2.28.1-.98.55-2.47.82-3.31.24-.86,1.32-3.98,1.46-4.49.14-.48.24-.72-.07-.67-.22.05-1.18.19-2.11.19-.17.48-.43,1.22-.86,2.02-.43.77-.98,1.56-1.51,1.97-.62.46-1.34.67-1.99.41,1.22-1.44,1.68-2.64,1.78-4.39-2.26-.84-.29-3.96.72-3.75-.02.62-1.39,2.3,4.61,1.27.79-.19,2.52-.62,2.83.82.34,1.63-.7,3.48-1.2,5.09-.41,1.37-.86,2.54-.94,3.41-.02.53-.07,1.13.22,1.1.26-.02.72-.43,1.27-.89,1.75-1.82,2.16-1.66,1.2.31Z"/>
      <path id="letter-22" class="cls-12" d="m271.76,347.84c.34.6.29,1.34-.14,1.9-.41.5-1.01.96-1.8,1.3-1.2.55-2.45.82-3.79.82-2.81,0-4.42-1.22-4.54-3.7-.12-2.47.74-4.9,2.4-6.7,1.61-1.92,3.67-2.95,5.81-2.95,2.02,0,2.98.86,2.95,2.5,0,1.63-2.11,3.72-5.35,4.87-.77.26-2.33.96-2.35,1.58-.02.58.05,1.08.26,1.39.53.77,1.39,1.22,2.3,1.1,1.7-.17,3-.91,4.25-2.11Zm-6.58-2.02c.41-.89,1.13-1.2,2.02-1.68,1.54-.84,1.97-1.63,2.21-2.47.24-.84-.05-1.56-.91-1.56-1.3,0-2.38,1.66-3.07,4.63,0,0-.1.41-.24,1.08Z"/>
      <path id="letter-21" class="cls-12" d="m260.91,341.89c0,4.66-3.62,9.79-7.75,9.79-.77,0-1.56-.14-2.26-.46-.26,1.03-.53,2.3-.53,3.34,0,.38.12.79.24,1.2-.86.43-1.68.6-2.26.6-.98,0-1.44-.48-1.44-1.34,0-.34.05-.74.14-1.18.17-.67,2.14-9.07,2.42-10.32.31-1.34.5-2.38.5-3.41,0-.38-.07-.77-.24-1.13.96-.43,1.78-.62,2.47-.62.89,0,1.37.36,1.37,1.1,0,.43-.31,1.85-.82,3.77,1.39-2.23,3.29-4.63,5.59-4.63.19,0,.38.02.6.05,1.39.19,1.94,1.8,1.94,3.24Zm-3.53.72c0-.94-.22-1.46-.74-1.46-1.25,0-4.25,4.87-5.18,7.51.14.67,1.13,1.15,1.94,1.15,2.04,0,3.82-3.7,3.98-6.91v-.29Z"/>
      <path id="letter-20" class="cls-12" d="m242.77,338.51c2.62,0,4.39,1.61,4.39,4.27,0,4.51-3.5,9.07-7.78,9.07-2.64,0-4.39-1.68-4.39-4.46,0-2.33.82-4.42,2.33-6.19,1.49-1.66,3.36-2.69,5.45-2.69Zm-.72,1.78c-2.14,0-3.53,4.61-3.53,7.37,0,1.42.43,2.45,1.58,2.45,2.11,0,3.48-4.56,3.48-7.32,0-1.42-.38-2.5-1.54-2.5Z"/>
      <path id="letter-19" class="cls-12" d="m232.66,348.63c1.08-.79,1.92-1.46,2.16-1.46.19,0,0,.46-.74,1.66-1.1,1.73-3.48,2.93-4.68,2.93-1.27,0-2.14-.7-2.14-2.18-.02-.53.07-1.1.22-2.02.05-.19.07-.41.1-.62-.86.62-1.22.86-1.3.86-.1,0,.46-.5,1.18-1.13-.02.02.05-.05.22-.19.89-3.79,1.94-7.66,3.07-11.4.12-.36.43-.77.82-1.03.38-.26.82-.34,1.18-.31.7.05,1.37.24,2.04.74.1.1.17.22.19.36,0,.02.07.31.07.86,0,.24,0,.53-.05.84-.12,1.01-.58,2.21-1.08,3.38-.82,1.87-2.02,3.5-2.47,4.1l-.02.14c-.05.22-.1.46-.17.7-.17.77-.6,2.76-.6,3.36,0,.48,0,1.01.24,1.01.7,0,1.27-.24,1.78-.6Zm-.89-5.95c.53-.77,1.18-1.85,1.68-3.05.5-1.13.94-2.28,1.03-3.19.02-.34.05-.65.02-.89,0-.24-.31-.34-.43-.12-.07.12-.14.26-.19.41-.41,1.08-.77,2.16-1.08,3.24-.38,1.18-.72,2.4-1.03,3.6Z"/>
      <path id="letter-18" class="cls-12" d="m225.73,347.84c.34.6.29,1.34-.14,1.9-.41.5-1.01.96-1.8,1.3-1.2.55-2.45.82-3.79.82-2.81,0-4.42-1.22-4.54-3.7-.12-2.47.74-4.9,2.4-6.7,1.61-1.92,3.67-2.95,5.81-2.95,2.02,0,2.98.86,2.95,2.5,0,1.63-2.11,3.72-5.35,4.87-.77.26-2.33.96-2.35,1.58-.02.58.05,1.08.26,1.39.53.77,1.39,1.22,2.3,1.1,1.7-.17,3-.91,4.25-2.11Zm-6.58-2.02c.41-.89,1.13-1.2,2.02-1.68,1.54-.84,1.97-1.63,2.21-2.47.24-.84-.05-1.56-.91-1.56-1.3,0-2.38,1.66-3.07,4.63,0,0-.1.41-.24,1.08Z"/>
      <path id="letter-17" class="cls-12" d="m212.86,339.63c0-.43-.26-1.22-.55-1.54.29-.05.7-.07.89-.07,1.73,0,2.5.46,2.5,1.75,0,1.03-.79,2.9-2.52,5.57-2.45,3.79-4.56,6.5-7.27,6.5-.17,0-.34,0-.5-.05,0-.34.05-.84.05-1.25.02-1.73-.26-4.92-.74-7.73-.34-1.94-.58-2.95-1.1-3.36.94-.58,1.85-.89,2.69-.89,1.01,0,1.61.7,1.71,2.18.24,1.75.31,4.22.31,6.26,0,.55,0,1.08-.02,1.63,1.39-1.82,2.42-3.5,3.24-4.99.96-1.7,1.34-3.07,1.34-4.03Z"/>
      <path id="letter-16" class="cls-12" d="m202.06,347.84c.34.6.29,1.34-.14,1.9-.41.5-1.01.96-1.8,1.3-1.2.55-2.45.82-3.79.82-2.81,0-4.42-1.22-4.54-3.7-.12-2.47.74-4.9,2.4-6.7,1.61-1.92,3.67-2.95,5.81-2.95,2.02,0,2.98.86,2.95,2.5,0,1.63-2.11,3.72-5.35,4.87-.77.26-2.33.96-2.35,1.58-.02.58.05,1.08.26,1.39.53.77,1.39,1.22,2.3,1.1,1.7-.17,3-.91,4.25-2.11Zm-6.58-2.02c.41-.89,1.13-1.2,2.02-1.68,1.54-.84,1.97-1.63,2.21-2.47.24-.84-.05-1.56-.91-1.56-1.3,0-2.38,1.66-3.07,4.63,0,0-.1.41-.24,1.08Z"/>
      <path id="letter-15" class="cls-12" d="m191.36,339.27c0,6.82-5.3,12.7-11.09,12.7-1.68,0-3.34-.55-4.68-1.58-.02-.22.02-.46.12-.91.98-4.39,2.26-9.27,2.81-12.27.05-.24.07-.43.07-.58,0-.72-.72-.5-.72-1.03,0-.62.19-1.27.55-1.8,1.54-.58,3.67-1.03,5.74-1.03,4.44,0,7.2,1.94,7.2,6.5Zm-3.6.65c0-3.14-1.42-5.02-4.06-5.02-.38,0-1.22.1-1.87.24.12.36.17.72.17,1.1,0,1.8-1.78,8.5-2.54,12.24.22.94.82,1.3,2.21,1.3,3.46,0,6.1-5.04,6.1-9.87Z"/>
      <path id="letter-14" class="cls-12" d="m158.19,335.55c0-.38-.07-.77-.24-1.13.91-.53,1.75-.74,2.52-.74.65,0,1.25.29,1.25,1.13,0,.91-.72,4.25-1.87,8.42,2.04-3.31,4.06-4.78,5.74-4.78,2.02,0,2.45,1.78,2.45,3.43,0,4.34-3.34,9.91-7.54,9.91-.91,0-1.82-.24-2.59-.72-.43.46-.98.62-1.63.62-.6,0-1.25-.19-1.9-.55.43-.7.77-1.54,1.13-2.81.65-2.71,1.54-6.36,2.26-9.84.26-1.32.43-2.21.43-2.95Zm6.38,6.89c0-.72-.14-1.44-.79-1.44-1.18,0-4.22,5.04-5.16,7.56.07.96,1.13,1.42,2.04,1.42,1.7,0,3.48-3.31,3.86-6.7.02-.24.05-.53.05-.84Z"/>
      <path id="letter-13" class="cls-12" d="m153.75,347.84c.34.6.29,1.34-.14,1.9-.41.5-1.01.96-1.8,1.3-1.2.55-2.45.82-3.79.82-2.81,0-4.42-1.22-4.54-3.7-.12-2.47.74-4.9,2.4-6.7,1.61-1.92,3.67-2.95,5.81-2.95,2.02,0,2.98.86,2.95,2.5,0,1.63-2.11,3.72-5.35,4.87-.77.26-2.33.96-2.35,1.58-.02.58.05,1.08.26,1.39.53.77,1.39,1.22,2.3,1.1,1.7-.17,3-.91,4.25-2.11Zm-6.58-2.02c.41-.89,1.13-1.2,2.02-1.68,1.54-.84,1.97-1.63,2.21-2.47.24-.84-.05-1.56-.91-1.56-1.3,0-2.38,1.66-3.07,4.63,0,0-.1.41-.24,1.08Z"/>
      <path id="letter-12" class="cls-12" d="m136.8,333.73c.48-.07.72.29.72.96,0,.62-.05,1.3-.05,1.99,0,.65.24,9.17.29,9.79l.07,1.01c2.9-5.81,4.66-9.43,5.3-12.1.07-.31.1-.65.1-.96,0-.46-.07-.89-.22-1.32.43-.14.89-.19,1.34-.19,1.44,0,2.14.46,2.14,1.54-.02,1.66-1.63,4.61-2.83,6.84l-1.01,1.87c-1.68,3.12-3.72,6.62-4.22,8.11-.12.26-1.22.74-2.4.89-.48.02-.74-.17-.79-.67-.17-1.37-.53-6.89-.79-10.97-.12.02-4.44,8.28-4.99,9.26-.26.46-.48.96-.67,1.49-.1.26-1.2.74-2.38.89-.48.02-.79-.17-.82-.67-.12-4.39-.31-8.78-.53-13.15-.17-3.24-1.13-4.01-1.39-4.27.89-.67,1.97-1.15,2.71-1.15,1.32,0,1.9,1.08,2.06,5.47.1,2.47.17,5.33.17,7.08,0,.48,0,.91-.02,1.27,3.53-6.67,5.06-9.84,5.59-11.35.1-.29.19-.58.31-.86,1.1-.48,1.58-.67,2.3-.79Z"/>
    </g>
    <g id="pinna" class="cls-14">
      <path id="letter-11" class="cls-12" d="m303.76,324.07c0,.36-.07.72-.22,1.04-.72,1.44-5,2.56-8.89,2.56-6.84,0-11.05-3.31-11.05-10.04,0-10.4,9.5-18.79,19.55-18.79,6.66,0,11.3,3.06,11.3,9.61,0,5.47-3.96,11.38-9.58,11.38-2.3,0-4.21-1.84-4.28-4.14-2.12,2.99-4.36,4.57-6.77,4.57s-3.02-1.55-3.02-3.56c0-4.54,4.46-10.51,9-10.51.97,0,2.05.29,3.13,1.01.47-.54,1.22-.79,2.12-.79.47,0,1.15.18,1.66.36-1.3,2.3-2.59,6.59-2.59,8.53,0,1.12.43,1.94,1.48,1.94,3.24,0,5.04-4.18,5.04-8.24,0-4.97-3.31-7.38-8.6-7.38-7.92,0-14.61,7.27-14.61,15.55,0,5.18,3.17,7.78,8.35,7.78,2.74,0,5.58-.61,7.85-1.8.11.29.14.61.14.94Zm-3.78-15.87c-2.92,0-5.4,5.11-5.4,8.03,0,.9.25,1.4,1.08,1.4,1.91,0,4.86-4.68,6.23-8.35-.47-.72-1.33-1.08-1.91-1.08Z"/>
      <path id="letter-10" class="cls-12" d="m270.54,312.55c-1.76,2.84-2.3,4.25-4,8.46-.5,1.3-1.15,1.94-2.99,1.94-.72,0-1.66-.11-2.81-.29.79-1.98,1.51-4.07,2.12-6.08,1.4-4.64,1.94-8.03,1.94-9.97,0-.9-.11-1.73-.4-2.34,1.58-.72,2.84-1.01,3.78-1.01s1.91.47,1.91,1.73c0,1.48-.61,3.74-1.29,6.55,2.23-4.18,6.15-8.39,9.18-8.39,1.62,0,2.74,1.12,2.74,2.63,0,1.62-.5,4.17-1.19,6.98-.5,1.76-1.08,3.64-1.08,4.93,0,.72.04,1.55.4,1.55s1.04-.54,1.73-1.26c1.15-1.19,1.76-1.8,2.16-1.8.14,0,.22.07.22.29,0,2.66-3.85,6.55-6.37,6.55-1.91,0-3.24-1.04-3.24-3.31,0-1.22.36-2.48.72-4.1.94-4.07,1.44-6.66,1.44-7.2,0-.58-.25-.79-.54-.79-1.01,0-2.74,2.27-4.43,4.93Z"/>
      <path id="letter-9" class="cls-12" d="m249.33,312.55c-1.76,2.84-2.3,4.25-4,8.46-.5,1.3-1.15,1.94-2.99,1.94-.72,0-1.66-.11-2.81-.29.79-1.98,1.51-4.07,2.12-6.08,1.4-4.64,1.94-8.03,1.94-9.97,0-.9-.11-1.73-.4-2.34,1.58-.72,2.84-1.01,3.78-1.01s1.91.47,1.91,1.73c0,1.48-.61,3.74-1.3,6.55,2.23-4.18,6.16-8.39,9.18-8.39,1.62,0,2.74,1.12,2.74,2.63,0,1.62-.5,4.17-1.19,6.98-.5,1.76-1.08,3.64-1.08,4.93,0,.72.04,1.55.4,1.55s1.04-.54,1.73-1.26c1.15-1.19,1.76-1.8,2.16-1.8.14,0,.22.07.22.29,0,2.66-3.85,6.55-6.37,6.55-1.91,0-3.24-1.04-3.24-3.31,0-1.22.36-2.48.72-4.1.94-4.07,1.44-6.66,1.44-7.2,0-.58-.25-.79-.54-.79-1.01,0-2.74,2.27-4.43,4.93Z"/>
      <path id="letter-8" class="cls-12" d="m237.56,317.99c1.58-1.73,2.38-2.2,2.38-1.48,0,.36-.18,1.01-.58,1.94-1.01,2.34-3.92,4.57-5.79,4.57s-3.06-1.08-3.2-3.31c-.07-.79,0-3.1.72-5.79.61-2.16.94-4.28,1.19-5.62.14-.72.18-1.4.18-1.94,0-.68-.18-1.26-.54-1.8,1.26-.47,2.48-.76,3.6-.76.61,0,1.37.11,1.8.58s.58,1.08.43,1.87c-.11.58-.22,1.15-.4,1.8-.54,2.02-1.19,4.28-1.4,5.29-.29,1.26-.54,3.31-.54,4.36,0,.72.04,1.55.4,1.55.43,0,1.04-.58,1.76-1.26Zm1.73-23.4c-1.73,0-3.42.32-4.9.9.07.18.18.32.18.5.04,1.44-.58,3.49-.58,4.54,0,.58.4,1.33,1.91,1.01,2.09-.43,2.05-.4,3.63-2.84.94-1.44,1.26-2.05,1.44-2.74.04-.18.04-.29.04-.43-.04-.54-.61-.94-1.73-.94Z"/>
      <path id="letter-7" class="cls-12" d="m215.6,320.47c0,.94.14,1.37.36,1.98-.9.58-2.48.94-3.92.94-1.51,0-2.16-.58-2.16-1.58,0-.9.22-1.94.47-3.02,1.66-6.7,3.17-12.67,4-17.28.11-.65.25-1.48.25-2.05,0-1.37-1.19-.14-1.19-1.44.07-.94.18-1.51.58-1.84,2.12-1.12,5.29-1.69,7.88-1.69,5.9,0,9.83,1.62,9.83,6.7,0,5.72-5.18,10.44-11.84,10.44-1.04,0-1.4-1.26-1.4-2.59,0-.14.07-.14.32-.14,4.54,0,7.49-2.45,7.49-7.02,0-3.24-2.05-4.36-5.22-4.36-.43.04-1.04.07-1.66.22.22.5.32,1.01.32,1.62,0,.58-.11,1.22-.29,2.09-1.01,4.61-2.16,8.85-3.06,13.46-.47,2.3-.76,4.28-.76,5.58Z"/>
    </g>
    <g id="fabien" class="cls-14">
      <path id="letter-6" class="cls-2" d="m187.02,312.55c-1.76,2.84-2.3,4.25-4,8.46-.5,1.3-1.15,1.94-2.99,1.94-.72,0-1.66-.11-2.81-.29.79-1.98,1.51-4.07,2.12-6.08,1.4-4.64,1.94-8.03,1.94-9.97,0-.9-.11-1.73-.4-2.34,1.58-.72,2.84-1.01,3.78-1.01s1.91.47,1.91,1.73c0,1.48-.61,3.74-1.3,6.55,2.23-4.18,6.15-8.39,9.18-8.39,1.62,0,2.74,1.12,2.74,2.63,0,1.62-.5,4.17-1.19,6.98-.5,1.76-1.08,3.64-1.08,4.93,0,.72.04,1.55.4,1.55s1.04-.54,1.73-1.26c1.15-1.19,1.76-1.8,2.16-1.8.14,0,.22.07.22.29,0,2.66-3.85,6.55-6.37,6.55-1.91,0-3.24-1.04-3.24-3.31,0-1.22.36-2.48.72-4.1.94-4.07,1.44-6.66,1.44-7.2,0-.58-.25-.79-.54-.79-1.01,0-2.74,2.27-4.43,4.93Z"/>
      <path id="letter-5" class="cls-2" d="m176.15,317.16c.5.9.43,2.02-.22,2.84-.61.76-1.51,1.44-2.7,1.94-1.8.83-3.67,1.22-5.69,1.22-4.21,0-6.62-1.84-6.8-5.54-.18-3.71,1.12-7.34,3.6-10.04,2.41-2.88,5.51-4.43,8.71-4.43,3.02,0,4.46,1.3,4.43,3.74,0,2.45-3.17,5.58-8.03,7.31-1.15.4-3.49,1.44-3.53,2.38-.04.86.07,1.62.4,2.09.79,1.15,2.09,1.84,3.46,1.66,2.56-.25,4.5-1.37,6.37-3.17Zm-9.86-3.02c.61-1.33,1.69-1.8,3.02-2.52,2.3-1.26,2.95-2.45,3.31-3.71.36-1.26-.07-2.34-1.37-2.34-1.94,0-3.56,2.48-4.61,6.95,0,0-.14.61-.36,1.62Z"/>
      <path id="letter-4" class="cls-2" d="m157.97,317.99c1.58-1.73,2.38-2.2,2.38-1.48,0,.36-.18,1.01-.58,1.94-1.01,2.34-3.92,4.57-5.8,4.57s-3.06-1.08-3.2-3.31c-.07-.79,0-3.1.72-5.79.61-2.16.94-4.28,1.19-5.62.14-.72.18-1.4.18-1.94,0-.68-.18-1.26-.54-1.8,1.26-.47,2.48-.76,3.6-.76.61,0,1.37.11,1.8.58.43.47.58,1.08.43,1.87-.11.58-.22,1.15-.4,1.8-.54,2.02-1.19,4.28-1.4,5.29-.29,1.26-.54,3.31-.54,4.36,0,.72.04,1.55.4,1.55.43,0,1.04-.58,1.76-1.26Zm1.73-23.4c-1.73,0-3.42.32-4.9.9.07.18.18.32.18.5.04,1.44-.58,3.49-.58,4.54,0,.58.4,1.33,1.91,1.01,2.09-.43,2.05-.4,3.64-2.84.94-1.44,1.26-2.05,1.44-2.74.04-.18.04-.29.04-.43-.04-.54-.61-.94-1.73-.94Z"/>
      <path id="letter-3" class="cls-2" d="m134.65,298.73c0-.58-.11-1.15-.36-1.69,1.37-.79,2.63-1.12,3.78-1.12.97,0,1.87.43,1.87,1.69,0,1.37-1.08,6.37-2.81,12.63,3.06-4.97,6.08-7.16,8.6-7.16,3.02,0,3.67,2.66,3.67,5.15,0,6.52-5,14.87-11.3,14.87-1.37,0-2.74-.36-3.89-1.08-.65.68-1.48.94-2.45.94-.9,0-1.87-.29-2.84-.83.65-1.04,1.15-2.3,1.69-4.21.97-4.07,2.3-9.54,3.38-14.76.4-1.98.65-3.31.65-4.43Zm9.57,10.33c0-1.08-.22-2.16-1.19-2.16-1.76,0-6.33,7.56-7.74,11.34.11,1.44,1.69,2.12,3.06,2.12,2.56,0,5.22-4.97,5.8-10.04.04-.36.07-.79.07-1.26Z"/>
      <path id="letter-2" class="cls-2" d="m129.96,316.22c.14,0,.18.11.18.32,0,2.63-3.82,6.55-6.37,6.55-1.98,0-3.2-1.22-3.2-3.82,0-.86.07-2.16.18-2.92-2.7,4.39-5.33,6.66-7.7,6.77h-.4c-2.88,0-3.89-2.12-3.89-5.08.14-6.95,5.58-14.87,11.37-14.87,1.4,0,2.59.29,3.53,1.01.58-.61,1.37-.94,2.27-.94,1.12,0,2.16.32,3.2.86-1.33,1.98-3.53,10.87-3.53,13.64,0,.72.04,1.55.4,1.51.58-.07,1.08-.58,1.76-1.26,1.12-1.22,1.84-1.8,2.2-1.8Zm-7.31-8.24c-.4-1.48-1.76-2.09-2.88-2.09-2.88,0-5.76,6.91-5.76,11.59.07,1.26.43,1.87,1.19,1.87s1.84-1.22,3.24-3.31c1.84-2.66,3.42-5.87,4.21-8.06Z"/>
      <path id="letter-1" class="cls-2" d="m103.29,307.73c2.77,0,6.16-.22,7.42-.61,0,2.59-1.51,3.64-2.63,3.74-1.51.11-3.38.29-5.58.29-.5,0-1.04,0-1.55.07-.18.5-.29,1.04-.43,1.58-.94,4.14-1.4,6.48-1.4,7.88,0,.72.36,1.4.36,1.8-.83.58-2.3.86-3.53.86-1.76,0-2.34-.61-2.34-1.94,0-.83.18-1.69.4-2.59.32-1.44.61-2.84.97-4.28,1.8-6.84,3.28-12.02,3.28-15.05,0-.54.04-1.19-.18-1.12-.47.11-.94.11-1.15.11-.11-.04-.14-.22-.11-.61,0-.32.07-.68.22-1.01.65-1.3.94-1.55,2.05-1.66,3.02-.29,6.08-.43,9.14-.43,1.44,0,2.77-.14,3.78-.14,1.44,0,2.02.14,2.48.65-.25,1.73-1.26,3.74-2.84,3.74-.43,0-1.12-.9-3.02-.9h-1.33c-1.01,0-1.94-.07-2.7-.07h-1.66c.36.4.5.76.5,1.15,0,.22,0,.36-.04.61-.4,2.02-1.12,5.29-1.76,7.92h1.66Z"/>
    </g>
  </g>
  <path id="screen-border" class="cls-15" d="m99.48,146.27c.04-3.17,1.3-6.21,3.52-8.47,2.24-2.26,5.29-3.53,8.47-3.53,29,4.5,58.3,6.84,87.65,7,31.59.18,63.14-2.16,94.35-7,3.19.03,6.25,1.29,8.53,3.53,2.25,2.25,3.51,5.29,3.52,8.47-13.94,31.88-13.94,68.12,0,100,0,.8-.1,5-12,12-60.31-9.31-121.69-9.31-182,0-3.17-.04-6.21-1.31-8.47-3.53-2.26-2.24-3.53-5.29-3.53-8.47"/>
  <path id="screen-content" class="cls-8" d="m285.13,191.27c.6-15.8,3.98-31.38,10-46-31.52,3.86-63.24,5.86-95,6-27.37,0-47.08-1.5-53-2-14-1.17-25.93-2.68-35-4,.43,1.33.86,2.75,1.28,4.22h-40.28c.59,1.17.93,2.44,1,3.75.08,1.65-.26,3.29-1,4.76h147.87v8.49H88.13c1.35,2.67,1.35,5.82,0,8.49h150.67v8.54H82.13c.65,1.13.99,2.41,1,3.72,0,1.32-.35,2.61-1,3.76h147.71v8.47H71.13c1.33,2.36,1.33,5.24,0,7.6h136.06v8.35H62c1.52,2.34,1.49,5.36-.07,7.67h110.38v8.43H56.13c1.33,2.33,1.33,5.19,0,7.52h58.4c-.79,3-1.6,5.72-2.4,8.2,60.74-8,122.26-8,183,0-7.28-17.73-10.69-36.81-10-55.97Zm-102,40c-2.85-1.35-6.15-1.35-9,0,.66-1.23,1-2.6,1-4,0-1.39-.34-2.77-1-4,1.25.6,2.61.94,4,1,1.72.08,3.44-.26,5-1-1.33,2.5-1.33,5.5,0,8Zm11,0c-2.85-1.35-6.15-1.35-9,0,.66-1.23,1-2.6,1-4,0-1.39-.34-2.77-1-4,1.25.6,2.61.94,4,1,1.72.08,3.44-.26,5-1-1.33,2.5-1.33,5.5,0,8Zm24-16c-2.85-1.35-6.15-1.35-9,0,.66-1.23,1-2.6,1-4,0-1.39-.34-2.77-1-4,1.56.74,3.28,1.08,5,1,1.39-.06,2.75-.4,4-1-1.33,2.5-1.33,5.5,0,8Zm11,0c-2.85-1.35-6.15-1.35-9,0,.66-1.23,1-2.6,1-4,0-1.39-.34-2.77-1-4,1.25.6,2.61.94,4,1,1.72.08,3.44-.26,5-1-1.33,2.5-1.33,5.5,0,8Zm14-57c1.25.6,2.61.94,4,1,1.72.08,3.44-.26,5-1-1.33,2.5-1.33,5.5,0,8-2.85-1.35-6.15-1.35-9,0,1.33-2.5,1.33-5.5,0-8Zm-11.5,8c-2.85-1.33-6.15-1.33-9,0,2-2.29,2-5.71,0-8,2.85,1.33,6.15,1.33,9,0-2,2.29-2,5.71,0,8Zm5.5-1c-1.39.07-2.74.41-4,1,.66-1.23,1-2.6,1-4,0-1.39-.34-2.77-1-4,1.56.74,3.28,1.08,5,1,1.39-.06,2.75-.4,4-1-1.33,2.5-1.33,5.5,0,8-1.56-.74-3.28-1.08-5-1Zm3,50c-2.85-1.35-6.15-1.35-9,0,.66-1.23,1-2.6,1-4,0-1.39-.34-2.77-1-4,1.25.6,2.61.94,4,1,1.72.08,3.44-.26,5-1-1.33,2.5-1.33,5.5,0,8Zm1-16c-2.85-1.35-6.15-1.35-9,0,.66-1.23,1-2.6,1-4,0-1.39-.34-2.77-1-4,1.56.74,3.28,1.08,5,1,1.39-.06,2.75-.4,4-1-1.33,2.5-1.33,5.5,0,8Zm8-16c-2.85-1.35-6.15-1.35-9,0,.66-1.23,1-2.6,1-4,0-1.39-.34-2.77-1-4,1.25.6,2.61.94,4,1,1.72.08,3.44-.26,5-1-1.33,2.5-1.33,5.5,0,8Zm11,0c-2.85-1.35-6.15-1.35-9,0,.66-1.23,1-2.6,1-4,0-1.39-.34-2.77-1-4,1.25.6,2.61.94,4,1,1.72.08,3.44-.26,5-1-1.33,2.5-1.33,5.5,0,8Z"/>
  <g id="cubes-color-group">
    <path id="cubes-color-13" class="cls-10" d="m55.13,239.27c-2.81-1.52-6.19-1.52-9,0,1.52-2.45,1.52-5.55,0-8,1.7.97,3.67,1.37,5.62,1.15,1.19-.15,2.34-.54,3.38-1.15-1.54,2.45-1.54,5.55,0,8Z"/>
    <path id="cubes-color-12" class="cls-10" d="m45.13,239.27c-2.81-1.52-6.19-1.52-9,0,1.52-2.45,1.52-5.55,0-8,1.7.97,3.67,1.37,5.62,1.15,1.19-.15,2.34-.54,3.38-1.15-1.54,2.45-1.54,5.55,0,8Z"/>
    <path id="cubes-color-11" class="cls-1" d="m61.13,223.27c-2.81-1.52-6.19-1.52-9,0,1.52-2.45,1.52-5.55,0-8,1.7.97,3.67,1.37,5.62,1.15,1.19-.15,2.34-.54,3.38-1.15-1.54,2.45-1.54,5.55,0,8Z"/>
    <path id="cubes-color-10" class="cls-1" d="m51.13,223.27c-2.81-1.52-6.19-1.52-9,0,1.52-2.45,1.52-5.55,0-8,1.7.97,3.67,1.37,5.62,1.15,1.19-.15,2.34-.54,3.38-1.15-1.54,2.45-1.54,5.55,0,8Z"/>
    <path id="cubes-color-9" class="cls-1" d="m41.13,223.27c-2.81-1.52-6.19-1.52-9,0,1.52-2.45,1.52-5.55,0-8,1.7.97,3.67,1.37,5.62,1.15,1.19-.15,2.34-.54,3.38-1.15-1.54,2.45-1.54,5.55,0,8Z"/>
    <path id="cubes-color-8" class="cls-6" d="m70.13,207.27c-2.81-1.52-6.19-1.52-9,0,1.52-2.45,1.52-5.55,0-8,1.7.97,3.67,1.37,5.62,1.15,1.19-.15,2.34-.54,3.38-1.15-1.54,2.45-1.54,5.55,0,8Z"/>
    <path id="cubes-color-7" class="cls-6" d="m60.13,207.27c-2.81-1.52-6.19-1.52-9,0,1.52-2.45,1.52-5.55,0-8,1.7.97,3.67,1.37,5.62,1.15,1.19-.15,2.34-.54,3.38-1.15-1.54,2.45-1.54,5.55,0,8Z"/>
    <path id="cubes-color-6" class="cls-9" d="m81.13,191.27c-2.81-1.52-6.19-1.52-9,0,1.52-2.45,1.52-5.55,0-8,1.7.97,3.67,1.37,5.62,1.15,1.19-.15,2.34-.54,3.38-1.15-1.54,2.45-1.54,5.55,0,8Z"/>
    <path id="cubes-color-5" class="cls-3" d="m86.63,175.27c-3.2-1.33-6.8-1.33-10,0,1.35-2.85,1.35-6.15,0-9,1.27.56,2.62.89,4,1,2.05.16,4.11-.19,6-1-.74,1.56-1.08,3.28-1,5,.06,1.39.4,2.75,1,4Z"/>
    <path id="cubes-color-4" class="cls-3" d="m75.13,175.27c-3.25-1.03-6.75-1.03-10,0,1.34-2.85,1.34-6.15,0-9,3.19,1.37,6.81,1.37,10,0-1.34,2.85-1.34,6.15,0,9Z"/>
    <path id="cubes-color-3" class="cls-13" d="m71.13,158.42c-3.22-1.7-7.07-1.7-10.29,0,1.75-2.74,1.75-6.26,0-9,1.96,1.09,4.2,1.54,6.43,1.29,1.36-.17,2.67-.61,3.86-1.29-.74,1.16-1.18,2.49-1.29,3.86-.12,1.81.33,3.61,1.29,5.14Z"/>
    <path id="cubes-color-2" class="cls-13" d="m60.13,158.42c-3.22-1.7-7.07-1.7-10.29,0,1.75-2.74,1.75-6.26,0-9,3.21,1.72,7.08,1.72,10.29,0-.96,1.54-1.41,3.34-1.29,5.15.11,1.37.55,2.69,1.29,3.85Z"/>
    <path id="cubes-color-1" class="cls-13" d="m49.13,158.36c-3.17-1.69-6.97-1.69-10.14,0,.73-1.14,1.16-2.45,1.26-3.8.13-1.78-.3-3.56-1.25-5.07,3.17,1.68,6.97,1.68,10.14,0-.73,1.14-1.16,2.45-1.27,3.8-.12,1.78.32,3.55,1.26,5.07Z"/>
  </g>
  <g id="screen-stand">
    <path id="polygone-stand" class="cls-12" d="m224.14,268.76l-8.33-15.76c-1.76-3.35-8.06-5.7-15.28-5.7s-13.53,2.32-15.29,5.7l-8.32,15.79c-.43.76-.57,1.65-.41,2.51h48c.18-.86.05-1.76-.37-2.54Z"/>
    <path id="rectangle-stand" class="cls-12" d="m162.63,273.27h76c2.49,0,4.5,2.01,4.5,4.5h0c0,2.49-2.01,4.5-4.5,4.5h-76c-2.49,0-4.5-2.01-4.5-4.5h0c0-2.49,2.01-4.5,4.5-4.5Z"/>
  </g>
</svg>